<?xml version="1.0" standalone="no"?>
<!DOCTYPE svg PUBLIC "-//W3C//DTD SVG 20010904//EN"
 "http://www.w3.org/TR/2001/REC-SVG-20010904/DTD/svg10.dtd">
<svg version="1.0" xmlns="http://www.w3.org/2000/svg"
 width="261.000000pt" height="261.000000pt" viewBox="0 0 261.000000 261.000000"
 preserveAspectRatio="xMidYMid meet">
<metadata>
Created by potrace 1.11, written by Peter Selinger 2001-2013
</metadata>
<g transform="translate(0.000000,261.000000) scale(0.100000,-0.100000)"
fill="#000000" stroke="none">
<path d="M215 2452 c17 -16 111 -114 210 -217 319 -335 316 -332 360 -343 24
-6 197 -9 425 -8 212 1 401 -2 420 -7 89 -22 129 -106 91 -191 -37 -86 10 -81
-796 -84 -390 -2 -711 -5 -713 -7 -2 -2 -4 -331 -4 -732 l0 -728 819 -2 c906
-2 886 -3 1018 62 176 86 316 276 350 475 38 219 22 379 -53 540 -19 41 -36
81 -38 88 -1 7 15 50 35 95 34 74 43 104 58 187 9 51 10 293 1 338 -4 26 -10
56 -12 67 -13 71 -89 209 -153 281 -67 73 -181 147 -275 178 -105 34 -147 36
-961 36 l-812 0 30 -28z m1455 -1468 c84 -49 88 -175 6 -235 l-31 -24 -440 0
-440 0 0 134 c0 118 2 134 17 140 10 3 206 6 436 6 400 -1 419 -2 452 -21z"/>
</g>
</svg>
